<svg xmlns="http://www.w3.org/2000/svg" version="1.1" xmlns:xlink="http://www.w3.org/1999/xlink" xmlns:svgjs="http://svgjs.dev/svgjs" width="1500" height="1500" viewBox="0 0 1500 1500"><rect width="1500" height="1500" fill="#000000"></rect><g transform="matrix(0.6666666666666666,0,0,0.6666666666666666,249.39393939393938,438.58569500674764)"><svg viewBox="0 0 396 247" data-background-color="#ffc8ff" preserveAspectRatio="xMidYMid meet" height="935" width="1500" xmlns="http://www.w3.org/2000/svg" xmlns:xlink="http://www.w3.org/1999/xlink"><g id="tight-bounds" transform="matrix(1,0,0,1,0.2400000000000091,-0.09999999999999432)"><svg viewBox="0 0 395.52 247.2" height="247.2" width="395.52"><g><svg></svg></g><g><svg viewBox="0 0 395.52 247.2" height="247.2" width="395.52"><g transform="matrix(1,0,0,1,75.54432,96.66109739172514)"><svg viewBox="0 0 244.43135999999998 53.87780521654972" height="53.87780521654972" width="244.43135999999998"><g><svg viewBox="0 0 244.43135999999998 53.87780521654972" height="53.87780521654972" width="244.43135999999998"><g><svg viewBox="0 0 244.43135999999998 53.87780521654972" height="53.87780521654972" width="244.43135999999998"><g><svg viewBox="0 0 244.43135999999998 53.87780521654972" height="53.87780521654972" width="244.43135999999998"><g id="textblocktransform"><svg viewBox="0 0 244.43135999999998 53.87780521654972" height="53.87780521654972" width="244.43135999999998" id="textblock"><g><svg viewBox="0 0 244.43135999999998 53.87780521654972" height="53.87780521654972" width="244.43135999999998"><g transform="matrix(1,0,0,1,0,0)"><svg width="244.43135999999998" viewBox="4.69 -33.84 201.79 44.480000000000004" height="53.87780521654972" data-palette-color="#000000"><path d="M23.58 0L4.69 0 4.69-33.84 8.69-33.84 8.69-3.39 23.58-3.39 23.58 0ZM39.18 0.61L39.18 0.61Q35.89 0.61 33.19-0.95 30.49-2.51 28.89-5.44 27.29-8.37 27.29-12.45L27.29-12.45Q27.29-16.53 28.89-19.48 30.49-22.44 33.05-24.02 35.62-25.61 38.47-25.61L38.47-25.61Q43.19-25.61 45.77-22.46 48.36-19.31 48.36-13.89L48.36-13.89Q48.36-12.52 48.22-11.57L48.22-11.57 31.2-11.57Q31.39-7.5 33.69-5 35.98-2.51 39.65-2.51L39.65-2.51Q41.53-2.51 43.09-3.02 44.65-3.52 45.99-4.42L45.99-4.42 47.39-1.95Q45.75-0.83 43.77-0.11 41.79 0.61 39.18 0.61ZM31.15-14.43L31.15-14.43 44.87-14.43Q44.87-18.36 43.21-20.41 41.55-22.46 38.52-22.46L38.52-22.46Q35.81-22.46 33.68-20.36 31.54-18.26 31.15-14.43ZM58.54 0L54.58 0 54.58-24.98 57.88-24.98 58.25-21.39 58.34-21.39Q60.15-23.17 62.18-24.39 64.2-25.61 66.79-25.61L66.79-25.61Q70.7-25.61 72.53-23.13 74.36-20.65 74.36-15.87L74.36-15.87 74.36 0 70.45 0 70.45-15.36Q70.45-18.92 69.31-20.56 68.16-22.19 65.55-22.19L65.55-22.19Q63.62-22.19 62.06-21.17 60.49-20.14 58.54-18.19L58.54-18.19 58.54 0ZM89.1 0.61L89.1 0.61Q86.32 0.61 83.93-0.33 81.54-1.27 79.83-2.93L79.83-2.93 81.68-5.25Q83.27-3.93 85.06-3.2 86.86-2.47 89.25-2.47L89.25-2.47Q91.76-2.47 93.03-3.67 94.3-4.88 94.3-6.54L94.3-6.54Q94.3-7.86 93.47-8.73 92.64-9.59 91.34-10.21 90.03-10.82 88.59-11.33L88.59-11.33Q86.74-12.01 85.05-12.92 83.37-13.82 82.29-15.19 81.22-16.55 81.22-18.6L81.22-18.6Q81.22-21.53 83.44-23.57 85.66-25.61 89.71-25.61L89.71-25.61Q92.03-25.61 94-24.82 95.96-24.02 97.4-22.83L97.4-22.83 95.6-20.51Q94.28-21.46 92.88-21.98 91.47-22.51 89.76-22.51L89.76-22.51Q87.3-22.51 86.16-21.37 85.03-20.24 85.03-18.8L85.03-18.8Q85.03-17.02 86.54-16.11 88.05-15.21 90.32-14.36L90.32-14.36Q92.3-13.67 94.08-12.78 95.87-11.89 96.99-10.47 98.11-9.06 98.11-6.74L98.11-6.74Q98.11-3.71 95.79-1.55 93.47 0.61 89.1 0.61ZM123.4 0L104.51 0 104.51-33.84 108.51-33.84 108.51-3.39 123.4-3.39 123.4 0ZM138.59 0.61L138.59 0.61Q135.56 0.61 132.93-0.93 130.31-2.47 128.71-5.38 127.11-8.3 127.11-12.45L127.11-12.45Q127.11-16.63 128.71-19.57 130.31-22.51 132.93-24.06 135.56-25.61 138.59-25.61L138.59-25.61Q141.66-25.61 144.3-24.06 146.94-22.51 148.53-19.57 150.13-16.63 150.13-12.45L150.13-12.45Q150.13-8.3 148.53-5.38 146.94-2.47 144.3-0.93 141.66 0.61 138.59 0.61ZM138.59-2.66L138.59-2.66Q141.93-2.66 144.01-5.36 146.08-8.06 146.08-12.45L146.08-12.45Q146.08-16.87 144.01-19.59 141.93-22.31 138.59-22.31L138.59-22.31Q136.41-22.31 134.73-21.07 133.04-19.82 132.1-17.61 131.16-15.41 131.16-12.45L131.16-12.45Q131.16-8.06 133.24-5.36 135.31-2.66 138.59-2.66ZM166.46 0.61L166.46 0.61Q163.44 0.61 160.81-0.93 158.19-2.47 156.59-5.38 154.99-8.3 154.99-12.45L154.99-12.45Q154.99-16.63 156.59-19.57 158.19-22.51 160.81-24.06 163.44-25.61 166.46-25.61L166.46-25.61Q169.54-25.61 172.18-24.06 174.81-22.51 176.41-19.57 178.01-16.63 178.01-12.45L178.01-12.45Q178.01-8.3 176.41-5.38 174.81-2.47 172.18-0.93 169.54 0.61 166.46 0.61ZM166.46-2.66L166.46-2.66Q169.81-2.66 171.88-5.36 173.96-8.06 173.96-12.45L173.96-12.45Q173.96-16.87 171.88-19.59 169.81-22.31 166.46-22.31L166.46-22.31Q164.29-22.31 162.61-21.07 160.92-19.82 159.98-17.61 159.04-15.41 159.04-12.45L159.04-12.45Q159.04-8.06 161.12-5.36 163.19-2.66 166.46-2.66ZM188.68 10.64L184.72 10.64 184.72-24.98 188.02-24.98 188.39-22.09 188.48-22.09Q190.19-23.49 192.28-24.55 194.37-25.61 196.52-25.61L196.52-25.61Q201.4-25.61 203.94-22.14 206.48-18.68 206.48-12.87L206.48-12.87Q206.48-8.62 204.96-5.6 203.45-2.59 200.97-0.99 198.49 0.61 195.59 0.61L195.59 0.61Q193.88 0.61 192.12-0.15 190.36-0.9 188.58-2.29L188.58-2.29 188.68 2.1 188.68 10.64ZM194.98-2.71L194.98-2.71Q198.18-2.71 200.29-5.43 202.4-8.15 202.4-12.82L202.4-12.82Q202.4-17.04 200.81-19.68 199.23-22.31 195.59-22.31L195.59-22.31Q193.95-22.31 192.27-21.4 190.58-20.48 188.68-18.75L188.68-18.75 188.68-5.4Q190.46-3.93 192.08-3.32 193.71-2.71 194.98-2.71Z" opacity="1" transform="matrix(1,0,0,1,0,0)" fill="#ffffff" class="wordmark-text-0" data-fill-palette-color="primary" id="text-0"></path></svg></g></svg></g></svg></g></svg></g><g></g></svg></g></svg></g></svg></g><g><path d="M82.158 83.942A122.216 122.216 0 0 1 313.362 83.942L308.504 83.942A117.357 117.357 0 0 0 87.016 83.942L82.158 83.942M82.158 163.258A122.216 122.216 0 0 0 313.362 163.258L308.504 163.258A117.357 117.357 0 0 1 87.016 163.258L82.158 163.258" fill="#ffffff" stroke="transparent" data-fill-palette-color="tertiary"></path></g></svg></g><defs></defs></svg><rect width="395.52" height="247.2" fill="none" stroke="none" visibility="hidden"></rect></g></svg></g></svg>